inDegrees=no
num_controls=7
num_derivatives=13
num_iterations=142
num_multipliers=7
num_parameters=0
num_slacks=7
num_states=26
objective=0.471611
objective_accelerations=0.002837
objective_balance=0.001984
objective_effort=0.003868
objective_height=0.454674
objective_ligament=0.008248
solver_duration=2059.967163
status=Solve_Succeeded
success=true
DataType=double
version=3
OpenSimVersion=4.5
endheader
time	/jointset/ground_pelvis/pelvis_tilt/value	/jointset/ground_pelvis/pelvis_tx/value	/jointset/ground_pelvis/pelvis_ty/value	/jointset/hip_l/hip_flexion_l/value	/jointset/hip_l/hip_adduction_l/value	/jointset/hip_l/hip_rotation_l/value	/jointset/back/lumbar_extension/value	/jointset/patellofemoral_l/patellar_flexion_l/value	/jointset/knee_l/knee_flexion_l/value	/jointset/knee_l/knee_adduction_l/value	/jointset/knee_l/knee_rotation_l/value	/jointset/ankle_l/ankle_angle_l/value	/jointset/subtalar_l/subtalar_angle_l/value	/jointset/ground_pelvis/pelvis_tilt/speed	/jointset/ground_pelvis/pelvis_tx/speed	/jointset/ground_pelvis/pelvis_ty/speed	/jointset/hip_l/hip_flexion_l/speed	/jointset/hip_l/hip_adduction_l/speed	/jointset/hip_l/hip_rotation_l/speed	/jointset/back/lumbar_extension/speed	/jointset/patellofemoral_l/patellar_flexion_l/speed	/jointset/knee_l/knee_flexion_l/speed	/jointset/knee_l/knee_adduction_l/speed	/jointset/knee_l/knee_rotation_l/speed	/jointset/ankle_l/ankle_angle_l/speed	/jointset/subtalar_l/subtalar_angle_l/speed	/forceset/tau_hip_flexion_l	/forceset/tau_hip_adduction_l	/forceset/tau_hip_rotation_l	/forceset/tau_knee_flexion_l	/forceset/tau_ankle_angle_l	/forceset/tau_subtalar_angle_l	/forceset/tau_lumbar_extension	lambda_cid13_p0	lambda_cid13_p1	lambda_cid13_p2	lambda_cid13_p3	lambda_cid13_p4	lambda_cid13_p5	lambda_cid14_p0	/jointset/ground_pelvis/pelvis_tilt/accel	/jointset/ground_pelvis/pelvis_tx/accel	/jointset/ground_pelvis/pelvis_ty/accel	/jointset/hip_l/hip_flexion_l/accel	/jointset/hip_l/hip_adduction_l/accel	/jointset/hip_l/hip_rotation_l/accel	/jointset/back/lumbar_extension/accel	/jointset/patellofemoral_l/patellar_flexion_l/accel	/jointset/knee_l/knee_flexion_l/accel	/jointset/knee_l/knee_adduction_l/accel	/jointset/knee_l/knee_rotation_l/accel	/jointset/ankle_l/ankle_angle_l/accel	/jointset/subtalar_l/subtalar_angle_l/accel	gamma_cid13_p0	gamma_cid13_p1	gamma_cid13_p2	gamma_cid13_p3	gamma_cid13_p4	gamma_cid13_p5	gamma_cid14_p0
0	-0.04638668932912883	0.07195231540317008	0.8962320624970087	0.1955287580552426	-0.3189503552943431	-0.542595939024576	-0.1379045077516729	0.07015288079085151	0.07015288079084844	-0.174532877505664	-0.1741240921796961	-0.06701059314715049	0.007766954741523364	0	0	0	0	0	0	0	0	0	0	0	0	0	0.05580405156752043	-0.06469113578613087	-0.03625525268632011	-0.2081950523732643	0.2029878001455187	-0.02530885585795646	0.0003676852861273877	27.92794949149861	0.04638289933456854	6.573264557076246	-21.95373280340862	-543.040700385873	-70.33224411222041	-41.56150634757308	-0.2648493620453011	0.08235319753980577	-0.06239979699316462	0.6865964956725062	-0.222225834277602	0.3581058857550831	-1.377517903648276	0.9729445951784471	0.9729445951786282	0.09744161859997114	0.004534835917846196	0.5693200485245103	0.06794236241512568	9.691229734971338e-10	3.979212540947202e-09	-3.842374513538167e-09	-1.009581702396642e-09	-4.506248515789979e-09	-8.579144205491526e-10	1.414114229957171e-09
0.01	-0.04640086561573801	0.0719579450489376	0.8962290182816443	0.1955609893826726	-0.3189616477712751	-0.5425781608200976	-0.1379732889726074	0.07019978696242404	0.07019978696241978	-0.1745293655767884	-0.1741231112669662	-0.06698128586879754	0.007770618797032466	-0.002972416492961563	0.001273734090147356	-0.0006082425266123248	0.006338035488107889	-0.002286300604777298	0.003512834833633485	-0.01370772548125224	0.009301332910441312	0.00930133291044335	0.0005941621398165638	0.0002078790344034855	0.005983837652249676	0.000770337983020494	0.06166705704910548	-0.08322984259201992	-0.03801593627864389	-0.2217544413068345	0.2166567156406267	-0.01710686029636932	-0.003649976152900498	32.62499387792482	-3.870041600260081	6.662943407539332	-26.88242886885462	-543.4129600487784	-79.49211902428141	-41.56233808892326	-0.3340118595422036	0.1720540526263655	-0.05994729958196476	0.5911723365894331	-0.2360036423116541	0.3414523016235254	-1.360122064396998	0.8967421458795196	0.8967421458796251	0.02417047182973684	0.03066788985234174	0.6312731147925271	0.08720836576261748	-5.863664187835886e-10	2.135114696018125e-09	5.289643126633092e-10	1.820801610253656e-10	-2.705058758058719e-09	-1.539843092265944e-09	2.590186578940151e-10
0.02	-0.04644888088059594	0.07198074614318098	0.8962199094771981	0.1956533541171823	-0.3189966375480079	-0.5425265382633768	-0.1381776918871707	0.07033730936446206	0.07033730936446347	-0.174523158636149	-0.1741197008733834	-0.0668884687156784	0.007783112002275598	-0.006767795650769923	0.003434289695169712	-0.001212917816319633	0.01202668142457526	-0.004739459958907993	0.006768870445514524	-0.02712433872383219	0.01812324609699304	0.0181232460969945	0.0005390026859465822	0.0004858961748403478	0.01270197495319901	0.00176582994673656	0.06753006253021154	-0.1017685493978987	-0.03977661987090741	-0.2353138302405385	0.2303256311357121	-0.008904864734783826	-0.007667637592332095	37.32874445500018	-7.787375330134415	6.75246457277149	-31.84814231897963	-543.7013759270479	-88.63388775490989	-41.56474139151408	-0.4294418950142523	0.2597175005145539	-0.06168634961207953	0.5567185853447536	-0.2555975841474624	0.3067460414046382	-1.319295455913833	0.8770606504005468	0.8770606504002034	-0.03242270013544057	0.01856245712454094	0.7161799782644576	0.1129731585551374	-2.141855811064311e-09	2.910168510890473e-10	4.900303138864785e-09	1.373742024447373e-09	-9.038690003274603e-10	-2.221771763982735e-09	-8.960769141691406e-10
0.03	-0.0465368536685832	0.07202747003745152	0.8962047934879014	0.1958004695537609	-0.3190565084381059	-0.5424434104005663	-0.1385143194807798	0.0705613182788256	0.0705613182787217	-0.1745193309040549	-0.1741135227124541	-0.06672680210924412	0.007806109026783974	-0.01075041896652413	0.005846812979951268	-0.001807094098661687	0.01739571740284613	-0.007212416527610762	0.0098452378757952	-0.04010626614953161	0.02666118849748593	0.02666118849748529	0.0002628598045765494	0.0007347247990150417	0.01955292074347515	0.002814837238140938	0.0629531631121443	-0.09433667654615373	-0.03849240870587092	-0.2259937921158123	0.2185167362904381	-0.009392256896569881	-0.004288827645196496	33.52015021308451	-7.076358340014997	6.830451063659729	-28.84583712104188	-543.6966582176839	-86.74118329557169	-41.56861419883144	-0.3712212829948958	0.2224685948327901	-0.05780554931496391	0.5268926187181986	-0.2397999010739566	0.3063616650738907	-1.273404308938632	0.8395589780497773	0.8395589780495298	-0.01976206690858847	0.02579218782739947	0.6577878127492992	0.09805326692580739	-2.275963022718144e-09	7.615617959985394e-10	4.553616118438779e-09	1.485204633958816e-09	-2.456790529651197e-09	-2.255356141091743e-09	-8.001796160432825e-10
0.04	-0.04666236243634755	0.07209640893504406	0.8961838312794288	0.196001254653132	-0.3191404399354555	-0.5423298629492371	-0.1389779189332322	0.07087018620576185	0.07087018620576134	-0.1745171749978589	-0.1741053064408319	-0.06649897885823876	0.007839033874705281	-0.01427499160786008	0.007877290359562493	-0.002382161651526705	0.0227606139670833	-0.009551581409993196	0.01285278815543921	-0.05251871049685176	0.03509504862503243	0.03509504862503389	0.0002046375323745168	0.0008935183337385618	0.02593330386735774	0.003751394629251174	0.05837626369497405	-0.08690480369447888	-0.03720819753990692	-0.2166737539907972	0.2067078414452939	-0.009879649058371512	-0.0009100176973957287	29.7178569283804	-6.365988638688068	6.908019948382441	-25.88252067874752	-543.6161539027273	-84.83212639999161	-41.57397338217888	-0.3378317601304076	0.1833083194803658	-0.05786460371664382	0.5558907025381141	-0.2288392468831231	0.2929826112773359	-1.205398840237976	0.8562441958112781	0.8562441958117684	0.01116142169878748	0.0005554392343219989	0.6220674449857077	0.09048317849658183	-2.380763385286887e-09	1.279831334512951e-09	4.109650214577154e-09	1.574395093905094e-09	-4.078868992728645e-09	-2.27557259460059e-09	-6.784886504908473e-10
0.05	-0.04682087399806123	0.07218389070117287	0.8961572178063666	0.1962553116997173	-0.3192472010314177	-0.542186495222898	-0.1395629323709744	0.07126260250769262	0.07126260250761833	-0.1745148985781943	-0.17409574863653	-0.06620969782351173	0.007880648959581189	-0.01735361551985914	0.009570298947029836	-0.00293666184042602	0.02800986351023283	-0.01178904347677784	0.01581745362761671	-0.06440441597309712	0.04334036046233093	0.04334036046233072	0.0002461267590216395	0.001023986560925023	0.03184341974008936	0.004540595390927165	0.05438085353663453	-0.08087641347328491	-0.03610409353183344	-0.2087820336377486	0.1965211547862626	-0.009982057087279011	0.002076595142755495	26.44739566490484	-5.881381275464522	6.982110015347648	-23.40005624529903	-543.6141385699999	-83.4695598363673	-41.58079195410212	-0.2818221332693818	0.1549828558848718	-0.05366288726743924	0.5033020162978599	-0.2194610539471352	0.2977124210598364	-1.16822223961297	0.8014971180432923	0.8014971180425506	-3.455335746161553e-05	0.02018468557530266	0.5635609202448835	0.06848383980589723	-2.903689422634865e-09	1.229236369310796e-09	4.900087120410924e-09	1.685068388833869e-09	-6.008315731034698e-09	-3.537628290410873e-09	-7.757370286166358e-10
0.06	-0.04700796068419885	0.07228683969867677	0.8961251752992579	0.1965606332289965	-0.3193759890215214	-0.5420135800606887	-0.1402644160311302	0.07173603641603704	0.07173603641603474	-0.1745123427122901	-0.1740847077157963	-0.06586370017769103	0.007929225115034617	-0.01999001649329593	0.01097073663458274	-0.003467968460793607	0.03301351049710378	-0.01395696023841613	0.018762275334673	-0.07581275498114395	0.05129856991380424	0.05129856991380038	0.0002605269254673117	0.001190141632695798	0.03727662608594471	0.005143608744713388	0.05038544337889492	-0.07484802325206685	-0.03499998952323663	-0.2008903132844049	0.1863344681273963	-0.01008446511607607	0.005063207983238414	23.18271043119771	-5.397293565251048	7.055721311613336	-20.95137181412946	-543.5417149920803	-82.09139278269275	-41.58900829101175	-0.2493871724178393	0.1247941394973994	-0.0532258900102912	0.5067701912824011	-0.214930185853802	0.289013858253127	-1.109925546598256	0.7988237186462405	0.7988237186463329	0.005743609658614162	0.00769280815120487	0.526685539610385	0.05324569691864305	-3.444220751552494e-09	1.15468921447847e-09	5.742498881389763e-09	1.79664622418296e-09	-7.950704291455639e-09	-4.851971954318058e-09	-8.822039054236128e-10
0.07000000000000001	-0.04721977287911269	0.07240253686543453	0.8960878993673262	0.1969152586139145	-0.3195261246337464	-0.5418115309792033	-0.1410772859592306	0.07228788551825437	0.07228788551825438	-0.174509680116792	-0.1740720990247095	-0.06546540973129265	0.007983074667420138	-0.02235435212589468	0.01214071596596437	-0.00398671483296167	0.03791568857369875	-0.01606001203755432	0.02162487453448669	-0.08665177747752084	0.05904561571795548	0.0590456157179402	0.0002753587201426692	0.001314091335269234	0.04233444980240184	0.005611732409004331	0.04738956462560811	-0.06946367947343007	-0.03421635941399097	-0.1953185032418073	0.1796678996740634	-0.01107362234189144	0.007367823134253211	21.00978186951807	-4.705941080138884	7.081087670444393	-19.30951270618673	-543.5766282258999	-80.27860588107497	-41.59855686603742	-0.227246516786507	0.1089030778383012	-0.05112516063783386	0.4825594809354021	-0.2064709764689507	0.2814821889100237	-1.054472626848472	0.7587999676846887	0.7587999676830516	-0.0001410445598004151	0.01212105029299299	0.4882784331402657	0.04140950457648173	-3.633692196672034e-09	5.546208574655075e-10	6.139359103605076e-09	1.778582211732005e-09	-8.764887788762791e-09	-5.536827412424553e-09	-9.828575344740768e-10
0.08	-0.04745468638196537	0.07252909447508192	0.89604545074171	0.1973190293525955	-0.3196969864238706	-0.5415815360580943	-0.1419952625174342	0.07291643606976288	0.07291643606975799	-0.1745067680050416	-0.1740587758368182	-0.06501795151863435	0.008041168217127139	-0.02461027808270229	0.01314282521250934	-0.004502507197708707	0.04284258125378731	-0.01810219581769491	0.02435144325688258	-0.0968340810015359	0.06663885977751226	0.0666388597774905	0.0003104301575325722	0.001333040997150159	0.04711017933793533	0.005992408208976136	0.04439368587197628	-0.06407933569482049	-0.03343272930467366	-0.1897466931994086	0.1730013312206441	-0.01206277956778417	0.009672438285073047	18.84218141158997	-4.014849995029889	7.105728676117615	-17.6971791874053	-543.5456528921592	-78.45076656214248	-41.60941289262842	-0.2277052372595528	0.09122012253001228	-0.05263508852609162	0.5117131119810613	-0.2027565820543653	0.2618077627695983	-0.9785817521258763	0.7680633697273483	0.768063369728428	0.009791538201329233	-0.01330719998727768	0.4702667034255668	0.03575612405467334	-3.800514617030408e-09	-7.935209323652752e-11	6.507474065255e-09	1.752154209100401e-09	-9.506283862643247e-09	-6.181070728221325e-09	-1.083136115282185e-09
